<svg id="图层_1" data-name="图层 1" xmlns="http://www.w3.org/2000/svg" viewBox="0 0 127.94 38.82"><defs><style>.cls-1,.cls-4{fill:#a54e98;}.cls-1,.cls-3{opacity:0.6;}.cls-2,.cls-3{fill:#f43000;}</style></defs><path class="cls-1" d="M413.82,368.29h-5.16c2.41,0,6.28,2.52,8,6.49l10.89,24.62c1.76,4,5.67,6.61,8.08,6.61h5.43c-2.41,0-6.32-2.64-8.08-6.61-2.81-6.36-7.57-17.13-10.89-24.62-1.75-4-5.62-6.49-8-6.49Zm.15,0Z" transform="translate(-408.66 -368.29)"/><path class="cls-1" d="M428.48,368.29h-5.16c2.41,0,6.28,2.52,8,6.49l10.89,24.62c1.76,4,5.67,6.61,8.08,6.61h5.43c-2.41,0-6.32-2.64-8.08-6.61-2.81-6.36-7.57-17.13-10.89-24.62-1.75-4-5.62-6.49-8-6.49Zm.15,0Z" transform="translate(-408.66 -368.29)"/><path class="cls-1" d="M467.57,368.29h-5.15c2.4,0,6.27,2.52,8,6.49,2.89,6.55,8.17,18.5,10.88,24.62,1.76,4,5.67,6.61,8.08,6.61h5.43c-2.41,0-6.32-2.64-8.08-6.61l-10.88-24.62c-1.76-4-5.63-6.49-8-6.49Zm.15,0Z" transform="translate(-408.66 -368.29)"/><path class="cls-2" d="M440.15,369.36h-.27c-2.41,0-6.28,2.53-8,6.5-3.31,7.49-8.07,18.26-10.89,24.62-1.75,4-5.67,6.6-8.08,6.6h5.43c2.41,0,6.33-2.63,8.08-6.6l10.89-24.62c1.75-4,5.62-6.5,8-6.5Zm-.19,0Z" transform="translate(-408.66 -368.29)"/><path class="cls-3" d="M444.69,369.36h-5.15c2.4,0,6.27,2.53,8,6.5,2.89,6.55,8.17,18.5,10.88,24.62,1.76,4,5.67,6.6,8.08,6.6H472c-2.41,0-6.32-2.63-8.08-6.6L453,375.86c-1.76-4-5.63-6.5-8-6.5Zm.15,0Z" transform="translate(-408.66 -368.29)"/><path class="cls-1" d="M482.23,368.29h-5.15c2.4,0,6.27,2.52,8,6.49,2.89,6.55,8.17,18.5,10.88,24.62,1.76,4,5.67,6.61,8.08,6.61h5.43c-2.41,0-6.32-2.64-8.08-6.61l-10.88-24.62c-1.76-4-5.63-6.49-8-6.49Zm.15,0Z" transform="translate(-408.66 -368.29)"/><path class="cls-3" d="M499.68,369.39h-5.16c2.41,0,6.27,2.53,8,6.49l10.89,24.63c1.75,4,5.67,6.6,8.07,6.6h5.43c-2.4,0-6.32-2.64-8.07-6.6-2.82-6.37-7.58-17.13-10.89-24.63-1.76-4-5.62-6.49-8-6.49Zm.15,0Z" transform="translate(-408.66 -368.29)"/><path class="cls-4" d="M477.69,368.29h-.27c-2.41,0-6.28,2.52-8,6.49-3.31,7.49-8.07,18.26-10.89,24.62-1.75,4-5.67,6.61-8.08,6.61h5.43c2.41,0,6.33-2.64,8.08-6.61l10.89-24.62c1.75-4,5.62-6.49,8-6.49Zm-.19,0Z" transform="translate(-408.66 -368.29)"/><path class="cls-4" d="M531.44,368.29h-.27c-2.41,0-6.27,2.52-8,6.49-3.31,7.49-8.07,18.26-10.89,24.62-1.75,4-5.66,6.61-8.07,6.61h5.43c2.41,0,6.32-2.64,8.07-6.61,2.71-6.12,8-18.07,10.89-24.62,1.76-4,5.62-6.49,8-6.49Zm-.19,0Z" transform="translate(-408.66 -368.29)"/><path class="cls-4" d="M463,368.29h-.27c-2.41,0-6.28,2.52-8,6.49-3.31,7.49-8.07,18.26-10.89,24.62-1.75,4-5.67,6.61-8.08,6.61h5.43c2.41,0,6.33-2.64,8.08-6.61l10.89-24.62c1.75-4,5.62-6.49,8-6.49Zm-.19,0Z" transform="translate(-408.66 -368.29)"/><path class="cls-2" d="M495.13,369.39h-.27c-2.41,0-6.27,2.53-8,6.49-3.31,7.5-8.07,18.26-10.89,24.63-1.75,4-5.66,6.6-8.07,6.6h5.43c2.41,0,6.32-2.64,8.07-6.6,2.71-6.13,8-18.08,10.89-24.63,1.76-4,5.62-6.49,8-6.49Zm-.19,0Z" transform="translate(-408.66 -368.29)"/><path class="cls-4" d="M516.78,368.29h-.27c-2.41,0-6.27,2.52-8,6.49-3.31,7.49-8.07,18.26-10.89,24.62-1.75,4-5.66,6.61-8.07,6.61H495c2.41,0,6.32-2.64,8.07-6.61,2.71-6.12,8-18.07,10.89-24.62,1.76-4,5.62-6.49,8-6.49Zm-.19,0Z" transform="translate(-408.66 -368.29)"/><path class="cls-1" d="M536.6,390.55l-7-15.77c-1.76-4-5.62-6.49-8-6.49h-5.43c2.41,0,6.27,2.52,8,6.49l10.89,24.62a11.79,11.79,0,0,0,1.51,2.5Z" transform="translate(-408.66 -368.29)"/><path class="cls-4" d="M415.64,374.78c-2,4.62-4.63,10.47-7,15.77V401.9a11.43,11.43,0,0,0,1.52-2.5l10.89-24.62c1.75-4,5.62-6.49,8-6.49h-5.43C421.26,368.29,417.39,370.81,415.64,374.78Z" transform="translate(-408.66 -368.29)"/></svg>